<?xml version="1.0" standalone="no"?><!DOCTYPE svg PUBLIC "-//W3C//DTD SVG 1.1//EN" "http://www.w3.org/Graphics/SVG/1.1/DTD/svg11.dtd"><svg t="1619844402748" class="icon" viewBox="0 0 1024 1024" version="1.1" xmlns="http://www.w3.org/2000/svg" p-id="1855" xmlns:xlink="http://www.w3.org/1999/xlink" width="200" height="200"><defs><style type="text/css"></style></defs><path d="M170.666667 409.6c0 46.32381 39.009524 85.333333 85.333333 85.333333s85.333333-39.009524 85.333333-85.333333-39.009524-85.333333-85.333333-85.333333S170.666667 363.27619 170.666667 409.6z m153.6-136.533333c0 46.32381 39.009524 85.333333 85.333333 85.333333s85.333333-39.009524 85.333333-85.333333-39.009524-85.333333-85.333333-85.333334-85.333333 39.009524-85.333333 85.333334z m204.8 0c0 46.32381 39.009524 85.333333 85.333333 85.333333s85.333333-39.009524 85.333333-85.333333-39.009524-85.333333-85.333333-85.333334-85.333333 39.009524-85.333333 85.333334z m153.6 136.533333c0 46.32381 39.009524 85.333333 85.333333 85.333333s85.333333-39.009524 85.333333-85.333333-39.009524-85.333333-85.333333-85.333333-85.333333 39.009524-85.333333 85.333333z m12.190476 182.857143c-29.257143-34.133333-53.638095-63.390476-85.333333-99.961905-17.066667-19.504762-36.571429-36.571429-58.514286-43.885714-2.438095 0-7.314286-2.438095-12.190476-2.438095-9.752381-2.438095-17.066667-2.438095-26.819048-2.438096s-17.066667 0-26.819048 2.438096c-4.87619 0-7.314286 2.438095-12.190476 2.438095-24.380952 7.314286-43.885714 26.819048-58.514286 43.885714-29.257143 34.133333-53.638095 63.390476-85.333333 99.961905-43.885714 43.885714-99.961905 95.085714-90.209524 163.352381 9.752381 34.133333 34.133333 68.266667 80.457143 80.457143 24.380952 4.87619 104.838095-14.628571 190.171429-14.628572h4.87619c85.333333 0 163.352381 19.504762 190.171429 14.628572 43.885714-9.752381 70.704762-43.885714 80.457143-80.457143 9.752381-68.266667-46.32381-119.466667-90.209524-163.352381z" p-id="1856"></path></svg>