<?xml version="1.0" standalone="no"?><!DOCTYPE svg PUBLIC "-//W3C//DTD SVG 1.1//EN" "http://www.w3.org/Graphics/SVG/1.1/DTD/svg11.dtd"><svg t="1619844393674" class="icon" viewBox="0 0 1024 1024" version="1.1" xmlns="http://www.w3.org/2000/svg" p-id="1578" xmlns:xlink="http://www.w3.org/1999/xlink" width="200" height="200"><defs><style type="text/css"></style></defs><path d="M843.34 724.47c-5.92 0-11.82-2.34-16.19-7-8.4-8.94-7.97-23 0.97-31.4 11.36-10.69 27.05-18.7 42.23-26.45 9.27-4.73 18.77-9.59 26.71-14.78 3.48-50.93-33.76-126.14-97.25-195.08-71.49-77.63-159.45-131.72-235.28-144.71-79.37-13.58-157.49-4.38-219.98 25.93-59.29 28.77-97.12 73.2-106.73 125.22 0.44 39.4 14.43 76.24 41.6 109.53 7.76 9.5 6.34 23.49-3.16 31.26-9.53 7.75-23.5 6.32-31.26-3.17-34.25-41.96-51.62-88.89-51.62-139.51 0-1.26 0.11-2.52 0.32-3.75C205.23 383.2 251.92 326.55 325.16 291c70.76-34.32 158.45-44.89 246.87-29.75 85.18 14.58 182.55 73.81 260.47 158.4 78.49 85.23 118.62 175.41 107.35 241.25-0.92 5.37-3.77 10.2-8.01 13.6-12.43 9.95-27.09 17.44-41.27 24.69-12.41 6.33-25.24 12.89-32.01 19.25-4.3 4.04-9.77 6.03-15.22 6.03zM706.99 767.5c-0.33 0-0.65 0-0.98-0.01-37.53-1.63-82-7.12-144.18-17.76-12.09-2.07-20.21-13.55-18.14-25.64 2.07-12.11 13.6-20.18 25.65-18.15 60.25 10.33 103 15.62 138.6 17.15 12.26 0.54 21.77 10.91 21.23 23.17-0.52 11.91-10.35 21.24-22.18 21.24z" fill="#040000" p-id="1579"></path><path d="M337.98 867.2c-34.48 0-122.06-116.52-122.06-213.94 0-34.24 10.83-60.65 32.21-78.52 37.07-31.01 91.48-21.71 93.78-21.28 12.08 2.17 20.11 13.73 17.94 25.8-2.17 12.06-13.68 20.08-25.73 17.95-10.16-1.76-40.21-2.99-57.62 11.72-10.86 9.17-16.15 23.66-16.15 44.33 0 72.13 56.39 145.24 78.69 166.01 15.52-13.08 44.9-50.32 35.89-87.45-10.51-43.27-19.09-56.06-20.7-58.17-8.12-7.32-9.79-19.7-3.46-28.98 6.91-10.14 20.72-12.77 30.87-5.87 12.88 8.78 25.49 37.32 36.47 82.56 8.52 35.06-2.21 75.02-29.4 109.62-8.59 10.88-30.67 36.22-50.73 36.22z m-5.28-43.52z m23.9-148.18c0.01 0.01 0.01 0.01 0.02 0.03-0.01-0.02-0.01-0.02-0.02-0.03z m-0.03-0.02c0.01 0 0.01 0.01 0.01 0.01s0-0.01-0.01-0.01z m-0.02-0.01s0 0.01 0.01 0.01c-0.01 0-0.01-0.01-0.01-0.01z m-2.58-2.16zM869.01 870.6c-22.33 0-54.78-15.17-69.87-22.9-30.13-15.46-71.02-42.52-94.64-83.74-18.09-31.57-15.08-56.65-9.36-72.14 14.09-38.14 55.57-53.91 60.25-55.58 11.56-4.15 24.27 1.89 28.39 13.47 4.11 11.53-1.87 24.2-13.37 28.36-7.42 2.73-27.83 13.32-33.64 29.29-3.52 9.7-1.47 21 6.28 34.51 27 47.11 90.42 75.62 116.88 82.82 4.82-16.2 8.29-49.2-10.33-68.83-27.34-28.85-47.27-31.46-47.47-31.47-12.26-0.56-21.37-10.93-20.81-23.18 0.57-12.28 11.29-21.61 23.58-21.15 3.65 0.16 36.8 2.86 76.95 45.24 21.12 22.27 30.15 56.16 24.75 92.94-1.74 11.79-7.46 40.18-23.22 49.22-3.88 2.2-8.82 3.14-14.37 3.14z m-12.45-37.68z" fill="#040000" p-id="1580"></path><path d="M668.97 758.98c-34.91 0-71.25-3.11-107.14-9.26-79.61-13.62-154.38-47.18-203.1-72.92-10.85-5.73-14.99-19.18-9.26-30.03 5.73-10.83 19.16-15 30.03-9.26 45.84 24.24 115.99 55.77 189.83 68.41 48.21 8.26 97.14 10.65 141.55 6.91 12.19-0.93 22.97 8.06 23.99 20.28 1.03 12.24-8.05 22.98-20.28 24.01-14.79 1.25-30.07 1.86-45.62 1.86zM239.03 567.76c-10.46 0-19.79-7.42-21.8-18.08-0.13-0.65-14.53-71.91-68.77-117.3-58.17-48.67-83.45-104.9-69.36-154.25 10.33-36.14 40.52-61.12 80.77-66.81 92.74-13.03 137.54 72.03 148.39 118.83 2.77 11.96-4.68 23.89-16.63 26.66-11.9 2.76-23.85-4.66-26.64-16.58-0.95-4.04-23.74-95.31-98.89-84.92-22.69 3.21-38.83 15.97-44.27 35.02-8.92 31.24 11.69 71.61 55.14 107.97 66.7 55.81 83.24 139.56 83.91 143.1 2.29 12.05-5.63 23.68-17.68 25.96-1.41 0.27-2.79 0.4-4.17 0.4z" fill="#040000" p-id="1581"></path><path d="M185.43 304.14m-19.69 0a19.69 19.69 0 1 0 39.38 0 19.69 19.69 0 1 0-39.38 0Z" fill="#040000" p-id="1582"></path></svg>